<svg xmlns="http://www.w3.org/2000/svg" width="1090.2" height="282.2" overflow="visible"><style>.st0{fill:#00f}</style><path d="M487.6 57.9c0 11.9-2.1 22.2-6.4 30.8s-10.2 15.3-17.7 20c-7.5 4.7-16 7-25.6 7-9.6 0-18.2-2.3-25.6-7-7.5-4.7-13.4-11.4-17.7-20-4.3-8.7-6.4-18.9-6.4-30.8s2.1-22.2 6.4-30.8c4.3-8.7 10.2-15.3 17.7-20 7.5-4.7 16-7 25.6-7 9.6 0 18.2 2.3 25.6 7 7.5 4.7 13.4 11.4 17.7 20 4.2 8.6 6.4 18.9 6.4 30.8zm-13.2 0c0-9.8-1.6-18-4.9-24.7-3.2-6.7-7.6-11.8-13.2-15.2-5.5-3.4-11.7-5.2-18.5-5.2-6.8 0-13 1.7-18.5 5.2-5.5 3.4-9.9 8.5-13.2 15.2-3.2 6.7-4.9 15-4.9 24.7 0 9.8 1.6 18 4.9 24.7s7.6 11.8 13.2 15.2c5.5 3.4 11.7 5.2 18.5 5.2 6.8 0 13-1.7 18.5-5.2 5.5-3.4 9.9-8.5 13.2-15.2s4.9-14.9 4.9-24.7zM501 146V29.7h12.5v13.4h1.5c1-1.5 2.3-3.3 4-5.6 1.7-2.3 4.2-4.3 7.4-6.2s7.6-2.7 13.1-2.7c7.1 0 13.4 1.8 18.8 5.3 5.4 3.6 9.7 8.6 12.7 15.1s4.6 14.2 4.6 23.1c0 9-1.5 16.7-4.6 23.3-3 6.5-7.3 11.6-12.7 15.2-5.4 3.6-11.6 5.4-18.7 5.4-5.4 0-9.8-.9-13-2.7-3.3-1.8-5.8-3.9-7.5-6.2-1.8-2.3-3.1-4.3-4.1-5.8h-1V146h-13zm12.7-74c0 6.4.9 12 2.8 16.9 1.9 4.9 4.6 8.7 8.2 11.4 3.6 2.7 8 4.1 13.2 4.1 5.4 0 10-1.4 13.6-4.3 3.7-2.9 6.4-6.8 8.3-11.7 1.9-4.9 2.8-10.4 2.8-16.4 0-5.9-.9-11.3-2.7-16.1-1.8-4.8-4.6-8.6-8.2-11.4-3.7-2.8-8.2-4.2-13.7-4.2-5.3 0-9.7 1.3-13.3 4-3.6 2.7-6.3 6.4-8.1 11.1-1.9 4.8-2.9 10.3-2.9 16.6zM623.1 116c-8.1 0-15.2-1.8-21.1-5.4-5.9-3.6-10.4-8.7-13.6-15.2-3.2-6.5-4.8-14.1-4.8-22.8 0-8.7 1.6-16.3 4.8-22.9 3.2-6.6 7.6-11.8 13.3-15.5 5.7-3.7 12.4-5.6 20-5.6 4.4 0 8.8.7 13 2.2 4.3 1.5 8.2 3.8 11.7 7.1s6.3 7.6 8.4 13c2.1 5.4 3.1 12 3.1 19.9v5.5H593V65.2h52c0-4.8-.9-9-2.8-12.8-1.9-3.7-4.6-6.7-8-8.9-3.5-2.2-7.5-3.2-12.2-3.2-5.2 0-9.6 1.3-13.4 3.8-3.8 2.6-6.7 5.9-8.7 9.9-2 4.1-3 8.4-3 13.1v7.5c0 6.4 1.1 11.8 3.3 16.2 2.2 4.4 5.3 7.8 9.3 10.1 4 2.3 8.6 3.4 13.8 3.4 3.4 0 6.5-.5 9.3-1.5 2.8-1 5.2-2.4 7.2-4.4 2-2 3.6-4.4 4.7-7.3l12.5 3.5c-1.3 4.3-3.5 8-6.7 11.2-3.1 3.2-7 5.7-11.6 7.5s-9.9 2.7-15.6 2.7zM683.2 63.4v50.9h-13V29.7h12.5v13.2h1.1c2-4.3 5-7.8 9-10.4 4-2.6 9.2-3.9 15.6-3.9 5.7 0 10.7 1.2 15 3.5 4.3 2.3 7.6 5.9 10 10.6 2.4 4.7 3.6 10.7 3.6 17.9v53.7h-13V61.4c0-6.6-1.7-11.8-5.2-15.5-3.4-3.7-8.2-5.6-14.2-5.6-4.1 0-7.8.9-11.1 2.7-3.2 1.8-5.8 4.4-7.7 7.9-1.7 3.4-2.6 7.6-2.6 12.5z"/><path class="st0" d="M819.2 114.3h-40V1.5h40.3c11.3 0 21.1 2.2 29.3 6.7s14.5 10.9 18.9 19.3c4.4 8.4 6.6 18.5 6.6 30.2s-2.2 21.8-6.6 30.3c-4.4 8.4-10.8 14.9-19 19.4-8.2 4.6-18 6.9-29.5 6.9zm-16.1-20.5h15.1c7 0 13-1.3 17.8-3.8 4.8-2.5 8.5-6.4 10.9-11.7 2.4-5.3 3.7-12.2 3.7-20.6 0-8.3-1.2-15.1-3.7-20.4-2.4-5.3-6.1-9.2-10.9-11.7-4.8-2.5-10.7-3.7-17.8-3.7H803v71.9zM907.9 115.9c-5.4 0-10.2-.9-14.4-2.8-4.2-1.9-7.6-4.7-10-8.4-2.4-3.7-3.7-8.4-3.7-14 0-4.7.9-8.6 2.6-11.8 1.7-3.2 4.1-5.8 7-7.7 3-1.9 6.4-3.4 10.2-4.4s7.8-1.7 12-2.1c4.9-.5 8.9-1 11.9-1.5s5.2-1.1 6.5-2.1c1.4-.9 2-2.3 2-4.1v-.3c0-3.5-1.1-6.2-3.3-8.1-2.2-1.9-5.3-2.9-9.3-2.9-4.2 0-7.6.9-10.1 2.8s-4.1 4.2-5 7l-21.7-1.8c1.1-5.1 3.3-9.6 6.5-13.3 3.2-3.8 7.4-6.7 12.5-8.7s11.1-3.1 17.8-3.1c4.7 0 9.2.6 13.5 1.7 4.3 1.1 8.1 2.8 11.5 5.1 3.4 2.3 6 5.3 8 8.9 1.9 3.6 2.9 7.9 2.9 13v57h-22.2v-11.7h-.7c-1.4 2.6-3.2 5-5.4 7-2.3 2-5 3.6-8.2 4.7-3 1-6.7 1.6-10.9 1.6zm6.7-16.2c3.4 0 6.5-.7 9.1-2.1 2.6-1.4 4.7-3.2 6.2-5.6 1.5-2.3 2.3-5 2.3-8v-9c-.7.5-1.7.9-3 1.3s-2.7.7-4.3 1c-1.6.3-3.2.6-4.7.8-1.6.2-3 .4-4.3.6-2.8.4-5.2 1-7.2 1.9-2.1.9-3.7 2.1-4.8 3.6-1.1 1.5-1.7 3.3-1.7 5.5 0 3.2 1.2 5.6 3.5 7.3 2.4 1.8 5.3 2.7 8.9 2.7zM1010.9 29.7v17.6H960V29.7h50.9zM971.6 9.5H995v78.8c0 2.2.3 3.8 1 5 .7 1.2 1.6 2 2.8 2.5 1.2.5 2.6.7 4.2.7 1.1 0 2.2-.1 3.3-.3 1.1-.2 1.9-.4 2.5-.5l3.7 17.4c-1.2.4-2.8.8-5 1.3-2.1.5-4.7.8-7.8.9-5.7.2-10.6-.5-14.8-2.3-4.2-1.7-7.5-4.4-9.9-8-2.3-3.6-3.5-8.2-3.5-13.8V9.5zM1042.6 115.9c-5.4 0-10.2-.9-14.4-2.8-4.2-1.9-7.6-4.7-10-8.4-2.4-3.7-3.7-8.4-3.7-14 0-4.7.9-8.6 2.6-11.8 1.7-3.2 4.1-5.8 7-7.7 3-1.9 6.4-3.4 10.2-4.4s7.8-1.7 12-2.1c4.9-.5 8.9-1 11.9-1.5s5.2-1.1 6.5-2.1c1.4-.9 2-2.3 2-4.1v-.3c0-3.5-1.1-6.2-3.3-8.1-2.2-1.9-5.3-2.9-9.3-2.9-4.2 0-7.6.9-10.1 2.8s-4.1 4.2-5 7l-21.7-1.8c1.1-5.1 3.3-9.6 6.5-13.3 3.2-3.8 7.4-6.7 12.5-8.7s11.1-3.1 17.8-3.1c4.7 0 9.2.6 13.5 1.7 4.3 1.1 8.1 2.8 11.5 5.1 3.4 2.3 6 5.3 8 8.9 1.9 3.6 2.9 7.9 2.9 13v57h-22.2v-11.7h-.7c-1.4 2.6-3.2 5-5.4 7-2.3 2-5 3.6-8.2 4.7-3.1 1-6.8 1.6-10.9 1.6zm6.7-16.2c3.4 0 6.5-.7 9.1-2.1 2.6-1.4 4.7-3.2 6.2-5.6 1.5-2.3 2.3-5 2.3-8v-9c-.7.5-1.7.9-3 1.3s-2.7.7-4.3 1c-1.6.3-3.2.6-4.7.8-1.6.2-3 .4-4.3.6-2.8.4-5.2 1-7.2 1.9-2.1.9-3.7 2.1-4.8 3.6-1.1 1.5-1.7 3.3-1.7 5.5 0 3.2 1.2 5.6 3.5 7.3 2.3 1.8 5.3 2.7 8.9 2.7zM372.6 249.3V136.5h44.5c8.5 0 15.8 1.5 21.8 4.5s10.6 7.3 13.8 12.8c3.2 5.5 4.8 12 4.8 19.5s-1.6 13.9-4.8 19.3c-3.2 5.4-7.9 9.5-14 12.4s-13.5 4.3-22.2 4.3h-29.8v-19.2h25.9c4.5 0 8.3-.6 11.3-1.9 3-1.2 5.3-3.1 6.7-5.6 1.5-2.5 2.2-5.6 2.2-9.3 0-3.7-.7-6.9-2.2-9.5-1.5-2.6-3.7-4.5-6.8-5.9s-6.8-2-11.4-2h-16.1v93.2h-23.7zm60.9-51.3l28 51.3h-26.3L407.8 198h25.7zM478 153.8c-3.5 0-6.5-1.2-9-3.5s-3.7-5.1-3.7-8.4 1.2-6.1 3.7-8.4c2.5-2.3 5.5-3.5 8.9-3.5 3.5 0 6.5 1.2 9 3.5s3.7 5.1 3.7 8.4c0 3.3-1.2 6.1-3.7 8.4s-5.4 3.5-8.9 3.5zm-11.9 95.5v-84.5h23.4v84.5h-23.4zM538.6 282.2c-7.6 0-14.1-1-19.5-3.1s-9.7-4.8-12.9-8.3c-3.2-3.5-5.3-7.4-6.2-11.6l21.7-2.9c.7 1.5 1.7 3 3.1 4.4s3.3 2.5 5.7 3.4c2.4.9 5.3 1.3 8.7 1.3 5.1 0 9.3-1.2 12.6-3.6 3.3-2.4 5-6.4 5-11.9v-15.5h-1c-1 2.3-2.6 4.6-4.6 6.7-2.1 2.1-4.7 3.8-7.9 5.1-3.2 1.3-7.1 2-11.6 2-6.3 0-12.1-1.5-17.3-4.4-5.2-3-9.3-7.5-12.4-13.6-3.1-6.1-4.6-13.8-4.6-23.2 0-9.6 1.6-17.6 4.7-24 3.1-6.4 7.3-11.2 12.5-14.4 5.2-3.2 10.9-4.8 17.1-4.8 4.7 0 8.7.8 11.9 2.4 3.2 1.6 5.8 3.6 7.7 5.9 2 2.4 3.5 4.7 4.5 7h.9v-14.2H580v85.4c0 7-1.8 12.9-5.3 17.7-3.5 4.8-8.4 8.3-14.6 10.8s-13.4 3.4-21.5 3.4zm.5-51.8c3.8 0 7-.9 9.6-2.8 2.6-1.9 4.6-4.6 6.1-8.1 1.4-3.5 2.1-7.8 2.1-12.7s-.7-9.3-2.1-12.9c-1.4-3.7-3.4-6.5-6.1-8.5-2.6-2-5.9-3-9.6-3-3.9 0-7.1 1-9.7 3.1-2.6 2.1-4.6 4.9-6 8.6-1.4 3.7-2 7.9-2 12.7 0 4.9.7 9.1 2.1 12.6s3.4 6.3 6 8.2c2.6 1.9 5.8 2.8 9.6 2.8zM614.4 200.4v48.9H591V136.5h22.8v43.1h1c1.9-5 5-8.9 9.2-11.8s9.6-4.3 16-4.3c5.9 0 11 1.3 15.4 3.8 4.4 2.6 7.8 6.2 10.2 11 2.4 4.8 3.6 10.4 3.6 17v53.8h-23.4v-49.6c0-5.2-1.3-9.3-3.9-12.2-2.7-2.9-6.4-4.3-11.1-4.3-3.2 0-6 .7-8.4 2-2.4 1.4-4.3 3.3-5.7 5.9s-2.3 5.9-2.3 9.5zM724.9 164.7v17.6H674v-17.6h50.9zm-39.3-20.2H709v78.8c0 2.2.3 3.8 1 5 .7 1.2 1.6 2 2.8 2.5 1.2.5 2.6.7 4.2.7 1.1 0 2.2-.1 3.3-.3 1.1-.2 1.9-.4 2.5-.5l3.7 17.4c-1.2.4-2.8.8-5 1.3s-4.7.8-7.8.9c-5.7.2-10.6-.5-14.8-2.3s-7.5-4.4-9.9-8c-2.3-3.6-3.5-8.2-3.5-13.8v-81.7zM801.6 188.8l-21.5 1.3c-.4-1.8-1.2-3.5-2.4-5s-2.8-2.7-4.8-3.6c-2-.9-4.3-1.3-7-1.3-3.6 0-6.7.8-9.2 2.3-2.5 1.5-3.7 3.6-3.7 6.1 0 2 .8 3.7 2.4 5.1 1.6 1.4 4.4 2.5 8.3 3.4l15.3 3.1c8.2 1.7 14.3 4.4 18.4 8.1 4 3.7 6.1 8.7 6.1 14.8 0 5.5-1.6 10.4-4.9 14.6-3.2 4.2-7.7 7.4-13.3 9.8s-12.1 3.5-19.5 3.5c-11.2 0-20.1-2.3-26.7-7-6.6-4.7-10.5-11.1-11.6-19.1l23.1-1.2c.7 3.4 2.4 6 5.1 7.8 2.7 1.8 6.1 2.7 10.3 2.7 4.1 0 7.4-.8 9.9-2.4 2.5-1.6 3.8-3.7 3.8-6.2 0-2.1-.9-3.9-2.7-5.3s-4.5-2.4-8.1-3.2l-14.6-2.9c-8.3-1.7-14.4-4.5-18.4-8.6-4-4.1-6-9.3-6-15.6 0-5.4 1.5-10.1 4.4-14s7.1-7 12.5-9.1c5.4-2.1 11.7-3.2 18.9-3.2 10.7 0 19.1 2.3 25.2 6.8s9.7 10.6 10.7 18.3z"/><path d="M847.7 249.3h-14.3l41.4-112.7h14.1l41.4 112.7H916l-33.7-94.9h-.9l-33.7 94.9zm5.3-44.1h57.7v12.1H853v-12.1zM940.1 249.3V136.5h38.1c8.8 0 16.1 1.6 21.7 4.8 5.6 3.2 9.8 7.5 12.5 12.9 2.7 5.4 4.1 11.4 4.1 18.1 0 6.6-1.3 12.7-4 18.1s-6.9 9.8-12.5 13c-5.6 3.2-12.8 4.8-21.6 4.8h-27.3V196H978c6.1 0 10.9-1 14.6-3.1 3.7-2.1 6.3-4.9 8-8.5 1.7-3.6 2.5-7.6 2.5-12.1s-.8-8.5-2.5-12.1c-1.7-3.6-4.4-6.4-8.1-8.4-3.7-2-8.6-3.1-14.8-3.1h-24v100.6h-13.6zM1044.5 136.5v112.7h-13.7V136.5h13.7z"/><g><path class="st0" d="M238.4 238.5c-13.9 13.9-36.6 13.9-50.5 0l-63.6-63.6c-13.9-13.9-13.9-36.6 0-50.5 13.9-13.9 36.6-13.9 50.5 0l63.6 63.6c13.9 13.9 13.9 36.6 0 50.5z"/><linearGradient id="SVGID_1_" gradientUnits="userSpaceOnUse" x1="21.967" y1="226.996" x2="150" y2="98.963"><stop offset="0" stop-color="#00a2ff"/><stop offset=".814" stop-color="#203eff"/></linearGradient><path d="M98.9 150.1V174c0 13.2-10.7 23.9-23.9 23.9S51.1 187.1 51.1 174s10.7-23.9 23.9-23.9h23.9M150 99H75c-41.4 0-75 33.6-75 75s33.6 75 75 75 75-33.6 75-75V99z" fill="url(#SVGID_1_)"/><linearGradient id="SVGID_2_" gradientUnits="userSpaceOnUse" x1="98.86" y1="150.098" x2="226.893" y2="22.065"><stop offset="0" stop-color="#262662"/><stop offset="1" stop-color="#0000a0"/></linearGradient><path d="M150 99V75.1c0-13.2 10.7-23.9 23.9-23.9s23.9 10.7 23.9 23.9S187 99 173.9 99H150m-51.1 51.1h75c41.4 0 75-33.6 75-75s-33.6-75-75-75-75 33.6-75 75v75z" fill="url(#SVGID_2_)"/></g></svg>